<?xml version="1.0" encoding="UTF-8" standalone="no"?>
<!-- Created with Inkscape (http://www.inkscape.org/) -->

<svg
   xmlns:dc="http://purl.org/dc/elements/1.1/"
   xmlns:cc="http://creativecommons.org/ns#"
   xmlns:rdf="http://www.w3.org/1999/02/22-rdf-syntax-ns#"
   xmlns:svg="http://www.w3.org/2000/svg"
   xmlns="http://www.w3.org/2000/svg"
   xmlns:sodipodi="http://sodipodi.sourceforge.net/DTD/sodipodi-0.dtd"
   xmlns:inkscape="http://www.inkscape.org/namespaces/inkscape"
   width="94.378754mm"
   height="24.733858mm"
   viewBox="0 0 334.41291 87.639654"
   id="svg3835"
   version="1.1"
   inkscape:version="0.91 r13725"
   sodipodi:docname="logo.svg">
  <defs
     id="defs3837" />
  <sodipodi:namedview
     id="base"
     pagecolor="#ffffff"
     bordercolor="#666666"
     borderopacity="1.0"
     inkscape:pageopacity="0.0"
     inkscape:pageshadow="2"
     inkscape:zoom="1.4"
     inkscape:cx="165.39294"
     inkscape:cy="-74.273142"
     inkscape:document-units="px"
     inkscape:current-layer="layer1"
     showgrid="false"
     inkscape:window-width="1918"
     inkscape:window-height="1059"
     inkscape:window-x="0"
     inkscape:window-y="19"
     inkscape:window-maximized="1"
     fit-margin-top="1"
     fit-margin-left="1"
     fit-margin-right="0"
     fit-margin-bottom="0" />
  <metadata
     id="metadata3840">
    <rdf:RDF>
      <cc:Work
         rdf:about="">
        <dc:format>image/svg+xml</dc:format>
        <dc:type
           rdf:resource="http://purl.org/dc/dcmitype/StillImage" />
        <dc:title></dc:title>
      </cc:Work>
    </rdf:RDF>
  </metadata>
  <g
     inkscape:label="Layer 1"
     inkscape:groupmode="layer"
     id="layer1"
     transform="translate(-25.909335,-10.479522)">
    <g
       style="font-variant:normal;font-weight:normal;font-stretch:normal;font-size:114.66666412px;font-family:Txt;-inkscape-font-specification:Txt;writing-mode:lr-tb;fill:#f2f2f2;fill-opacity:1;fill-rule:nonzero;stroke:none"
       id="text406">
      <path
         d="m 86.338051,97.503296 -1.847657,0 0,-26.651041 -53.190103,0 0,26.651041 -1.847656,0 0,-27.770833 27.378906,-54.813801 2.127604,0 27.378906,54.813801 0,27.770833 z M 83.930499,69.060588 57.895343,16.990277 31.860187,69.060588 l 52.070312,0 z"
         id="path3357"
         inkscape:connector-curvature="0" />
      <path
         d="m 168.89804,42.801474 -14.33334,14.333333 -40.70442,0 0,40.368489 -1.84766,0 0,-83.480467 42.55208,0 14.33334,14.333333 0,14.445312 z m -1.84766,-0.727864 0,-13.045573 -13.21354,-13.213541 -39.97656,0 0,39.472655 39.97656,0 13.21354,-13.213541 z"
         id="path3359"
         inkscape:connector-curvature="0" />
      <path
         d="m 251.25871,96.775431 -1.34375,1.34375 -26.81901,-26.874999 -26.875,26.874999 -1.34375,-1.34375 26.93099,-26.819009 -26.93099,-26.81901 1.34375,-1.39974 26.875,26.986979 26.81901,-26.986979 1.34375,1.39974 -26.93099,26.81901 26.93099,26.819009 z"
         id="path3361"
         inkscape:connector-curvature="0" />
    </g>
    <g
       style="font-variant:normal;font-weight:normal;font-stretch:normal;font-size:32px;font-family:SansSerif;-inkscape-font-specification:SansSerif;writing-mode:lr-tb;fill:#cccccc;fill-opacity:1;fill-rule:nonzero;stroke:none"
       id="text410">
      <path
         d="m 274.35352,73.149323 4.70312,0 5.95313,15.875 5.98437,-15.875 4.70313,0 0,23.328125 -3.07813,0 0,-20.484375 -6.01562,16 -3.17188,0 -6.01562,-16 0,20.484375 -3.0625,0 0,-23.328125 z"
         style=""
         id="path3619" />
      <path
         d="m 301.55664,89.571198 0,-10.59375 2.875,0 0,10.484375 q 0,2.484375 0.96875,3.734375 0.96875,1.234375 2.90625,1.234375 2.32813,0 3.67188,-1.484375 1.35937,-1.484375 1.35937,-4.046875 l 0,-9.921875 2.875,0 0,17.5 -2.875,0 0,-2.6875 q -1.04687,1.59375 -2.4375,2.375 -1.375,0.765625 -3.20312,0.765625 -3.01563,0 -4.57813,-1.875 -1.5625,-1.875 -1.5625,-5.484375 z m 7.23438,-11.015625 0,0 z"
         style=""
         id="path3621" />
      <path
         d="m 333.32227,79.493073 0,2.71875 q -1.21875,-0.625 -2.53125,-0.9375 -1.3125,-0.3125 -2.71875,-0.3125 -2.14063,0 -3.21875,0.65625 -1.0625,0.65625 -1.0625,1.96875 0,1 0.76562,1.578125 0.76563,0.5625 3.07813,1.078125 l 0.98437,0.21875 q 3.0625,0.65625 4.34375,1.859375 1.29688,1.1875 1.29688,3.328125 0,2.4375 -1.9375,3.859375 -1.92188,1.421875 -5.29688,1.421875 -1.40625,0 -2.9375,-0.28125 -1.51562,-0.265625 -3.20312,-0.8125 l 0,-2.96875 q 1.59375,0.828125 3.14062,1.25 1.54688,0.40625 3.0625,0.40625 2.03125,0 3.125,-0.6875 1.09375,-0.703125 1.09375,-1.96875 0,-1.171875 -0.79687,-1.796875 -0.78125,-0.625 -3.45313,-1.203125 l -1,-0.234375 q -2.67187,-0.5625 -3.85937,-1.71875 -1.1875,-1.171875 -1.1875,-3.203125 0,-2.46875 1.75,-3.8125 1.75,-1.34375 4.96875,-1.34375 1.59375,0 3,0.234375 1.40625,0.234375 2.59375,0.703125 z"
         style=""
         id="path3623" />
      <path
         d="m 338.85352,78.977448 2.875,0 0,17.5 -2.875,0 0,-17.5 z m 0,-6.8125 2.875,0 0,3.640625 -2.875,0 0,-3.640625 z"
         style=""
         id="path3625" />
      <path
         d="m 360.32227,79.649323 0,2.6875 q -1.21875,-0.671875 -2.45313,-1 -1.21875,-0.34375 -2.46875,-0.34375 -2.79687,0 -4.34375,1.78125 -1.54687,1.765625 -1.54687,4.96875 0,3.203125 1.54687,4.984375 1.54688,1.765625 4.34375,1.765625 1.25,0 2.46875,-0.328125 1.23438,-0.34375 2.45313,-1.015625 l 0,2.65625 q -1.20313,0.5625 -2.5,0.84375 -1.28125,0.28125 -2.73438,0.28125 -3.95312,0 -6.28125,-2.484375 -2.32812,-2.484375 -2.32812,-6.703125 0,-4.28125 2.34375,-6.734375 2.35937,-2.453125 6.45312,-2.453125 1.32813,0 2.59375,0.28125 1.26563,0.265625 2.45313,0.8125 z"
         style=""
         id="path3627" />
    </g>
  </g>
</svg>
